<?xml version="1.0" encoding="UTF-8"?>
<svg width="1280px" height="428px" viewBox="0 0 1280 428" version="1.1" xmlns="http://www.w3.org/2000/svg" xmlns:xlink="http://www.w3.org/1999/xlink">
    <!-- Generator: Sketch 54 (76480) - https://sketchapp.com -->
    <title>Group 3</title>
    <desc>Created with Sketch.</desc>
    <g id="Page-1" stroke="none" stroke-width="1" fill="none" fill-rule="evenodd">
        <g id="Scoop-Copy" transform="translate(0.000000, -168.000000)">
            <g id="Group-3">
                <g id="Group-6" transform="translate(1063.000000, 396.000000)" fill="#0496FF">
                    <rect id="Rectangle-Copy-14" opacity="0.202613467" x="0" y="28.3255814" width="14" height="13.6744186"></rect>
                    <rect id="Rectangle-Copy-60" x="15" y="13.6744186" width="14" height="13.6744186"></rect>
                    <rect id="Rectangle-Copy-61" opacity="0.502859933" x="29" y="0" width="14" height="13.6744186"></rect>
                </g>
                <rect id="Rectangle-Copy-25" fill="#6D04FF" x="1173" y="210" width="14" height="14"></rect>
                <g id="Group-7" transform="translate(160.000000, 345.000000)" fill="#6D04FF">
                    <rect id="Rectangle-Copy-42" x="0" y="14" width="15" height="15"></rect>
                    <rect id="Rectangle-Copy-43" opacity="0.651320685" x="14" y="0" width="15" height="15"></rect>
                    <rect id="Rectangle-Copy-44" opacity="0.246279762" x="0" y="0" width="15" height="15"></rect>
                </g>
                <g id="Group-4" transform="translate(123.000000, 197.000000)" fill="#0496FF">
                    <rect id="Rectangle-Copy-16" x="0" y="0" width="13" height="13"></rect>
                    <rect id="Rectangle-Copy-45" opacity="0.152553013" x="13" y="0" width="13" height="13"></rect>
                </g>
                <g id="Group-5" transform="translate(1122.000000, 376.000000)" fill="#6C757D">
                    <rect id="Rectangle-Copy-15" opacity="0.239932106" x="127" y="0" width="42" height="41.4349776"></rect>
                    <rect id="Rectangle-Copy-59" opacity="0.103817894" x="85" y="0" width="42" height="41.4349776"></rect>
                    <rect id="Rectangle-Copy-24" opacity="0.239932106" x="41" y="85.8295964" width="44" height="46.367713"></rect>
                    <rect id="Rectangle-Copy-55" opacity="0.327473958" x="127" y="132.197309" width="44" height="44.3946188"></rect>
                    <rect id="Rectangle-Copy-56" opacity="0.0428524926" x="127" y="175.605381" width="44" height="44.3946188"></rect>
                    <rect id="Rectangle-Copy-71" opacity="0.0428524926" x="43" y="0" width="42" height="43.4080717"></rect>
                    <rect id="Rectangle-Copy-57" opacity="0.0428524926" x="85" y="41.4349776" width="42" height="44.3946188"></rect>
                    <rect id="Rectangle-Copy-58" opacity="0.102353051" x="127" y="41.4349776" width="42" height="44.3946188"></rect>
                    <rect id="Rectangle-Copy-53" opacity="0.145484561" x="85" y="85.8295964" width="42" height="46.367713"></rect>
                    <rect id="Rectangle-Copy-72" opacity="0.145484561" x="0" y="132.197309" width="42" height="45.3811659"></rect>
                    <rect id="Rectangle-Copy-54" opacity="0.0792875744" x="85" y="132.197309" width="42" height="44.3946188"></rect>
                </g>
                <rect id="Rectangle-Copy-22" fill="#17191C" opacity="0.506696429" x="846" y="294" width="37" height="39"></rect>
                <rect id="Rectangle-Copy-31" fill="#17191C" opacity="0.506696429" x="84" y="392" width="37" height="39"></rect>
                <rect id="Rectangle-Copy-28" fill="#6C757D" opacity="0.0967261905" x="737" y="361" width="37" height="39"></rect>
                <rect id="Rectangle-Copy-32" fill="#6C757D" opacity="0.0967261905" x="14" y="505" width="37" height="39"></rect>
                <rect id="Rectangle-Copy-29" fill="#17191C" opacity="0.506696429" x="774" y="400" width="27" height="29"></rect>
                <rect id="Rectangle-Copy-33" fill="#17191C" opacity="0.506696429" x="51" y="544" width="27" height="28"></rect>
                <rect id="Rectangle-Copy-30" fill="#17191C" opacity="0.199288504" x="801" y="429" width="26" height="28"></rect>
                <rect id="Rectangle-Copy-46" fill="#17191C" opacity="0.0511997768" x="809" y="294" width="37" height="39"></rect>
                <rect id="Rectangle-Copy-73" fill="#17191C" opacity="0.0511997768" x="86" y="438" width="37" height="39"></rect>
                <rect id="Rectangle-Copy-47" fill="#17191C" opacity="0.146786644" x="887" y="369" width="37" height="36"></rect>
                <rect id="Rectangle-Copy-74" fill="#17191C" opacity="0.146786644" x="164" y="512" width="37" height="36"></rect>
                <rect id="Rectangle-Copy-19" fill="#6C757D" opacity="0.239932106" x="1213" y="260" width="35" height="35"></rect>
                <rect id="Rectangle-Copy-26" fill="#6C757D" opacity="0.239932106" x="688" y="248" width="35" height="35"></rect>
                <rect id="Rectangle-Copy-48" fill="#6C757D" opacity="0.100446429" x="1248" y="224" width="35" height="35"></rect>
                <rect id="Rectangle-Copy-86" fill="#6C757D" opacity="0.100446429" x="722" y="168" width="36" height="35"></rect>
                <rect id="Rectangle-Copy-87" fill="#6C757D" opacity="0.100446429" x="0" y="357" width="36" height="35"></rect>
                <g id="Group-8" transform="translate(919.000000, 213.000000)" fill="#6C757D">
                    <rect id="Rectangle-Copy-23" opacity="0.239932106" x="45" y="43.505618" width="45" height="44.494382"></rect>
                    <rect id="Rectangle-Copy-50" opacity="0.0252743676" x="89" y="0" width="45" height="44.494382"></rect>
                    <rect id="Rectangle-Copy-52" opacity="0.0252743676" x="0" y="43.505618" width="45" height="44.494382"></rect>
                    <rect id="Rectangle-Copy-51" opacity="0.0778227307" x="45" y="0" width="45" height="44.494382"></rect>
                </g>
                <g id="Group-8-Copy-3" transform="translate(199.000000, 311.000000)" fill="#6C757D">
                    <rect id="Rectangle-Copy-23" opacity="0.239932106" x="46" y="43.505618" width="45" height="44.494382"></rect>
                    <polygon id="Rectangle-Copy-50" opacity="0.0252743676" points="90 0 107.5 9.12313508 107.5 49.445683 90 44.494382"></polygon>
                    <rect id="Rectangle-Copy-52" opacity="0.0252743676" x="0" y="43.505618" width="45" height="44.494382"></rect>
                    <rect id="Rectangle-Copy-51" opacity="0.0778227307" x="46" y="0" width="45" height="44.494382"></rect>
                </g>
                <g id="Group-2" transform="translate(1015.000000, 180.000000)" fill="#FF6D04">
                    <rect id="Rectangle-Copy-18" x="14" y="14" width="15" height="14"></rect>
                    <rect id="Rectangle-Copy-21" opacity="0.250581287" x="0" y="0" width="15" height="14"></rect>
                </g>
            </g>
        </g>
    </g>
</svg>