<?xml version="1.0" encoding="UTF-8"?>
<svg width="1257px" height="518px" viewBox="0 0 1257 518" version="1.1" xmlns="http://www.w3.org/2000/svg" xmlns:xlink="http://www.w3.org/1999/xlink">
    <!-- Generator: Sketch 54 (76480) - https://sketchapp.com -->
    <title>Group 4</title>
    <desc>Created with Sketch.</desc>
    <g id="Page-1" stroke="none" stroke-width="1" fill="none" fill-rule="evenodd">
        <g id="Home-Page" transform="translate(-23.000000, -3823.000000)">
            <g id="Group-4" transform="translate(23.000000, 3823.000000)">
                <rect id="Rectangle-Copy-28" fill="#6C757D" opacity="0.07" x="11" y="411" width="44" height="47"></rect>
                <rect id="Rectangle-Copy-68" fill="#6C757D" opacity="0.07" x="98" y="458" width="44" height="45"></rect>
                <rect id="Rectangle-Copy-82" fill="#6C757D" opacity="0.327473958" x="928" y="467" width="31" height="32"></rect>
                <rect id="Rectangle-Copy-62" fill="#6C757D" opacity="0.0428524926" x="513" y="470" width="44" height="45"></rect>
                <rect id="Rectangle-Copy-80" fill="#6C757D" opacity="0.0428524926" x="751" y="377" width="44" height="45"></rect>
                <rect id="Rectangle-Copy-83" fill="#6C757D" opacity="0.0428524926" x="897" y="435" width="31" height="32"></rect>
                <rect id="Rectangle-Copy-85" fill="#6C757D" opacity="0.0428524926" x="764" y="467" width="31" height="32"></rect>
                <rect id="Rectangle-Copy-86" fill="#6C757D" opacity="0.0428524926" x="605" y="471" width="31" height="32"></rect>
                <rect id="Rectangle-Copy-87" fill="#6C757D" opacity="0.0428524926" x="636" y="438" width="31" height="32"></rect>
                <rect id="Rectangle-Copy-88" fill="#6C757D" opacity="0.0428524926" x="667" y="470" width="31" height="32"></rect>
                <rect id="Rectangle-Copy-89" fill="#6C757D" opacity="0.0428524926" x="142" y="426" width="31" height="32"></rect>
                <rect id="Rectangle-Copy-90" fill="#6C757D" opacity="0.0428524926" x="353" y="471" width="31" height="32"></rect>
                <rect id="Rectangle-Copy-91" fill="#6C757D" opacity="0.0428524926" x="237" y="471" width="31" height="32"></rect>
                <rect id="Rectangle-Copy-70" fill="#6C757D" opacity="0.0428524926" x="55" y="366" width="43" height="45"></rect>
                <rect id="Rectangle-Copy-76" fill="#6C757D" opacity="0.102353051" x="98" y="366" width="43" height="44"></rect>
                <rect id="Rectangle-Copy-77" fill="#6C757D" opacity="0.145484561" x="55" y="411" width="43" height="47"></rect>
                <rect id="Rectangle-Copy-74" fill="#6C757D" opacity="0.145484561" x="384" y="425" width="43" height="46"></rect>
                <rect id="Rectangle-Copy-66" fill="#6C757D" opacity="0.0792875744" x="470" y="425" width="43" height="45"></rect>
                <rect id="Rectangle-Copy-79" fill="#6C757D" opacity="0.0792875744" x="55" y="458" width="43" height="45"></rect>
                <rect id="Rectangle-Copy-15" fill="#6C757D" opacity="0.49672154" x="1221" y="148" width="37" height="37"></rect>
                <rect id="Rectangle-Copy-20" fill="#6C757D" opacity="0.49672154" x="999" y="37" width="37" height="37"></rect>
                <rect id="Rectangle-Copy-59" fill="#6C757D" opacity="0.103817894" x="1184" y="148" width="37" height="37"></rect>
                <rect id="Rectangle-Copy-94" fill="#2C3035" x="1221" y="111" width="37" height="37"></rect>
                <rect id="Rectangle-Copy-33" fill="#6C757D" opacity="0.239932106" x="407" y="148" width="37" height="37"></rect>
                <rect id="Rectangle-Copy-55" fill="#6C757D" opacity="0.301548549" x="999" y="148" width="37" height="37"></rect>
                <rect id="Rectangle-Copy-103" fill="#6C757D" opacity="0.301548549" x="1036" y="74" width="37" height="37"></rect>
                <rect id="Rectangle-Copy-169" fill="#6C757D" opacity="0.246022" x="925" y="185" width="37" height="37"></rect>
                <rect id="Rectangle-Copy-170" fill="#6C757D" opacity="0.104027158" x="666" y="148" width="37" height="37"></rect>
                <rect id="Rectangle-Copy-171" fill="#6C757D" x="814" y="185" width="37" height="37"></rect>
                <rect id="Rectangle-Copy-179" fill="#6C757D" opacity="0.104027158" x="740" y="185" width="37" height="37"></rect>
                <rect id="Rectangle-Copy-219" fill="#6C757D" opacity="0.117861793" x="703" y="74" width="37" height="37"></rect>
                <rect id="Rectangle-Copy-217" fill="#6C757D" opacity="0.117861793" x="444" y="111" width="37" height="37"></rect>
                <rect id="Rectangle-Copy-180" fill="#212529" x="962" y="185" width="37" height="37"></rect>
                <rect id="Rectangle-Copy-181" fill="#282D31" x="1036" y="185" width="37" height="37"></rect>
                <rect id="Rectangle-Copy-211" fill="#282D31" x="1073" y="111" width="37" height="37"></rect>
                <rect id="Rectangle-Copy-214" fill="#282D31" x="999" y="74" width="37" height="37"></rect>
                <rect id="Rectangle-Copy-182" fill="#212529" x="1147" y="185" width="37" height="40"></rect>
                <rect id="Rectangle-Copy-210" fill="#212529" x="1147" y="111" width="37" height="37"></rect>
                <rect id="Rectangle-Copy-172" fill="#6C757D" opacity="0.252371652" x="185" y="222" width="37" height="37"></rect>
                <rect id="Rectangle-Copy-173" fill="#6C757D" opacity="0.250767299" x="111" y="259" width="37" height="37"></rect>
                <rect id="Rectangle-Copy-174" fill="#6C757D" opacity="0.25044" x="37" y="222" width="37" height="37"></rect>
                <rect id="Rectangle-Copy-158" fill="#6C757D" opacity="0.101539249" x="1073" y="259" width="37" height="37"></rect>
                <rect id="Rectangle-Copy-157" fill="#6C757D" opacity="0.301548549" x="962" y="259" width="37" height="37"></rect>
                <rect id="Rectangle-Copy-55" fill="#6C757D" opacity="0.147391183" x="1110" y="225" width="37" height="34"></rect>
                <rect id="Rectangle-Copy-178" fill="#6C757D" opacity="0.0480375744" x="999" y="185" width="37" height="37"></rect>
                <rect id="Rectangle-Copy-212" fill="#6C757D" opacity="0.117861793" x="1036" y="111" width="37" height="37"></rect>
                <rect id="Rectangle-Copy-139" fill="#6C757D" opacity="0.327473958" x="925" y="222" width="37" height="37"></rect>
                <rect id="Rectangle-Copy-140" fill="#6C757D" opacity="0.327473958" x="851" y="222" width="37" height="37"></rect>
                <rect id="Rectangle-Copy-136" fill="#6C757D" opacity="0.0845656622" x="629" y="148" width="37" height="37"></rect>
                <rect id="Rectangle-Copy-73" fill="#212529" x="74" y="185" width="37" height="37"></rect>
                <rect id="Rectangle-Copy-141" fill="#6C757D" opacity="0.06" x="740" y="148" width="37" height="37"></rect>
                <rect id="Rectangle-Copy-74" fill="#6C757D" opacity="0.0428524926" x="311" y="295" width="34" height="36"></rect>
                <rect id="Rectangle-Copy-105" fill="#6C757D" opacity="0.100702195" x="148" y="222" width="37" height="37"></rect>
                <rect id="Rectangle-Copy-229" fill="#6C757D" x="37" y="111" width="37" height="37"></rect>
                <rect id="Rectangle-Copy-97" fill="#2C3035" x="1110" y="111" width="37" height="37"></rect>
                <rect id="Rectangle-Copy-106" fill="#6C757D" opacity="0.0767996652" x="333" y="222" width="37" height="37"></rect>
                <rect id="Rectangle-Copy-115" fill="#6C757D" opacity="0.0767996652" x="296" y="74" width="37" height="37"></rect>
                <rect id="Rectangle-Copy-147" fill="#6C757D" opacity="0.0767996652" x="259" y="222" width="37" height="37"></rect>
                <rect id="Rectangle-Copy-148" fill="#6C757D" opacity="0.291387649" x="222" y="185" width="37" height="37"></rect>
                <rect id="Rectangle-Copy-150" fill="#212529" x="296" y="185" width="37" height="37"></rect>
                <rect id="Rectangle-Copy-55" fill="#282D31" x="444" y="148" width="37" height="37"></rect>
                <rect id="Rectangle-Copy-155" fill="#282D31" x="407" y="185" width="37" height="37"></rect>
                <rect id="Rectangle-Copy-166" fill="#6C757D" opacity="0.728259859" x="592" y="185" width="7" height="37"></rect>
                <rect id="Rectangle-Copy-98" fill="#212529" x="666" y="111" width="37" height="37"></rect>
                <rect id="Rectangle-Copy-154" fill="#282D31" opacity="0.0767996652" x="592" y="111" width="37" height="37"></rect>
                <rect id="Rectangle-Copy-57" fill="#17191C" x="1184" y="185" width="37" height="40"></rect>
                <rect id="Rectangle-Copy-71" fill="#17191C" x="1184" y="111" width="37" height="37"></rect>
                <rect id="Rectangle-Copy-110" fill="#17191C" x="999" y="111" width="37" height="37"></rect>
                <rect id="Rectangle-Copy-164" fill="#17191C" x="703" y="185" width="37" height="37"></rect>
                <rect id="Rectangle-Copy-220" fill="#17191C" x="666" y="74" width="37" height="37"></rect>
                <rect id="Rectangle-Copy-218" fill="#17191C" x="407" y="111" width="37" height="37"></rect>
                <rect id="Rectangle-Copy-225" fill="#17191C" x="333" y="111" width="37" height="37"></rect>
                <rect id="Rectangle-Copy-226" fill="#17191C" x="370" y="37" width="37" height="37"></rect>
                <rect id="Rectangle-Copy-215" fill="#17191C" opacity="0.747233073" x="481" y="111" width="37" height="37"></rect>
                <rect id="Rectangle-Copy-159" fill="#17191C" opacity="0.201195126" x="1110" y="259" width="37" height="37"></rect>
                <rect id="Rectangle-Copy-160" fill="#17191C" opacity="0.201195126" x="1036" y="296" width="37" height="37"></rect>
                <rect id="Rectangle-Copy-188" fill="#212529" x="1073" y="185" width="37" height="40"></rect>
                <rect id="Rectangle-Copy-189" fill="#212529" x="1221" y="185" width="37" height="40"></rect>
                <rect id="Rectangle-Copy-175" fill="#17191C" opacity="0.201195126" x="333" y="294" width="37" height="37"></rect>
                <rect id="Rectangle-Copy-177" fill="#17191C" opacity="0.201195126" x="37" y="259" width="37" height="37"></rect>
                <rect id="Rectangle-Copy-230" fill="#17191C" opacity="0.80078125" x="37" y="74" width="37" height="37"></rect>
                <rect id="Rectangle-Copy-193" fill="#17191C" opacity="0.80078125" x="111" y="185" width="37" height="37"></rect>
                <rect id="Rectangle-Copy-161" fill="#17191C" opacity="0.201195126" x="925" y="259" width="37" height="37"></rect>
                <rect id="Rectangle-Copy-183" fill="#17191C" opacity="0.80078125" x="1110" y="185" width="37" height="40"></rect>
                <rect id="Rectangle-Copy-185" fill="#17191C" opacity="0.80078125" x="518" y="185" width="37" height="37"></rect>
                <rect id="Rectangle-Copy-187" fill="#17191C" opacity="0.80078125" x="444" y="185" width="37" height="37"></rect>
                <rect id="Rectangle-Copy-186" fill="#17191C" opacity="0.201195126" x="407" y="259" width="37" height="37"></rect>
                <rect id="Rectangle-Copy-176" fill="#17191C" opacity="0.201195126" x="222" y="259" width="37" height="37"></rect>
                <rect id="Rectangle-Copy-167" fill="#17191C" opacity="0.204473586" x="888" y="185" width="37" height="37"></rect>
                <rect id="Rectangle-Copy-168" fill="#282D31" x="925" y="148" width="37" height="37"></rect>
                <rect id="Rectangle-Copy-209" fill="#17191C" opacity="0.1976609" x="777" y="148" width="37" height="37"></rect>
                <rect id="Rectangle-Copy-156" fill="#17191C" opacity="0.201195126" x="999" y="222" width="37" height="37"></rect>
                <rect id="Rectangle-Copy-75" fill="#6C757D" opacity="0.0428524926" x="74" y="111" width="37" height="37"></rect>
                <rect id="Rectangle-Copy-101" fill="#6C757D" opacity="0.0428524926" x="135" y="73" width="37" height="40"></rect>
                <rect id="Rectangle-Copy-53" fill="#6C757D" opacity="0.145484561" x="1184" y="225" width="37" height="34"></rect>
                <rect id="Rectangle-Copy-104" fill="#6C757D" opacity="0.145484561" x="814" y="222" width="37" height="37"></rect>
                <rect id="Rectangle-Copy-138" fill="#212529" x="555" y="148" width="37" height="37"></rect>
                <rect id="Rectangle-Copy-146" fill="#6C757D" opacity="0.0845656622" x="481" y="148" width="37" height="37"></rect>
                <rect id="Rectangle-Copy-222" fill="#6C757D" opacity="0.145484561" x="703" y="0" width="37" height="37"></rect>
                <rect id="Rectangle-Copy-143" fill="#6C757D" opacity="0.0480375744" x="666" y="185" width="37" height="37"></rect>
                <rect id="Rectangle-Copy-227" fill="#6C757D" opacity="0.750860305" x="37" y="37" width="37" height="37"></rect>
                <rect id="Rectangle-Copy-149" fill="#6C757D" opacity="0.117861793" x="592" y="111" width="37" height="37"></rect>
                <rect id="Rectangle-Copy-221" fill="#6C757D" opacity="0.248790923" x="666" y="37" width="37" height="37"></rect>
                <rect id="Rectangle-Copy-223" fill="#6C757D" opacity="0.328101749" x="333" y="74" width="37" height="37"></rect>
                <rect id="Rectangle-Copy-72" fill="#6C757D" opacity="0.145484561" x="851" y="185" width="37" height="37"></rect>
                <rect id="Rectangle-Copy-54" fill="#6C757D" opacity="0.0792875744" x="888" y="222" width="37" height="37"></rect>
                <rect id="Rectangle-Copy-112" fill="#6C757D" opacity="0.0792875744" x="999" y="0" width="37" height="37"></rect>
                <rect id="Rectangle-Copy-151" fill="#6C757D" opacity="0.0792875744" x="1036" y="148" width="37" height="37"></rect>
                <rect id="Rectangle-Copy-79" fill="#6C757D" opacity="0.0792875744" x="37" y="185" width="37" height="37"></rect>
                <rect id="Rectangle-Copy-92" fill="#6C757D" opacity="0.0792875744" x="481" y="185" width="37" height="37"></rect>
                <rect id="Rectangle-Copy-224" fill="#6C757D" x="333" y="37" width="37" height="37"></rect>
                <rect id="Rectangle-Copy-189" fill="#212529" x="777" y="185" width="37" height="40"></rect>
                <rect id="Rectangle-Copy-189" fill="#212529" x="1036" y="148" width="37" height="37"></rect>
                <rect id="Rectangle-Copy-213" fill="#212529" x="1073" y="74" width="37" height="37"></rect>
                <rect id="Rectangle-Copy-190" fill="#212529" x="592" y="185" width="74" height="37"></rect>
                <rect id="Rectangle-Copy-216" fill="#212529" x="518" y="111" width="74" height="37"></rect>
                <rect id="Rectangle-Copy-191" fill="#212529" x="703" y="148" width="74" height="37"></rect>
                <rect id="Rectangle-Copy-206" fill="#212529" x="370" y="148" width="74" height="37"></rect>
                <rect id="Rectangle-Copy-207" fill="#212529" x="703" y="111" width="37" height="37"></rect>
                <rect id="Rectangle-Copy-208" fill="#212529" x="629" y="111" width="37" height="37"></rect>
                <rect id="Rectangle-Copy-192" fill="#212529" x="888" y="185" width="74" height="37"></rect>
                <rect id="Rectangle-Copy-201" fill="#212529" x="851" y="148" width="37" height="37"></rect>
                <rect id="Rectangle-Copy-202" fill="#212529" x="1110" y="148" width="37" height="37"></rect>
                <rect id="Rectangle-Copy-203" fill="#181B1E" opacity="0.201195126" x="1221" y="259" width="37" height="37"></rect>
                <rect id="Rectangle-Copy-204" fill="#181B1E" opacity="0.201195126" x="74" y="296" width="37" height="37"></rect>
                <rect id="Rectangle-Copy-195" fill="#282D31" x="814" y="185" width="74" height="37"></rect>
                <rect id="Rectangle-Copy-196" fill="#2C3035" x="1147" y="148" width="74" height="37"></rect>
                <rect id="Rectangle-Copy-197" fill="#212529" x="481" y="185" width="74" height="37"></rect>
                <rect id="Rectangle-Copy-198" fill="#212529" opacity="0.747209821" x="222" y="185" width="74" height="37"></rect>
                <rect id="Rectangle-Copy-199" fill="#212529" x="0" y="185" width="74" height="37"></rect>
                <rect id="Rectangle-Copy-190" fill="#212529" x="333" y="185" width="74" height="37"></rect>
                <rect id="Rectangle-Copy-194" fill="#212529" x="148" y="185" width="74" height="37"></rect>
                <rect id="Rectangle-Copy-200" fill="#212529" x="37" y="148" width="74" height="37"></rect>
                <rect id="Rectangle-Copy-24" fill="#6C757D" opacity="0.07" x="1129" y="425" width="44" height="47"></rect>
                <rect id="Rectangle-Copy-55" fill="#6C757D" opacity="0.07" x="1216" y="472" width="44" height="45"></rect>
                <rect id="Rectangle-Copy-57" fill="#6C757D" opacity="0.0428524926" x="1089" y="381" width="43" height="45"></rect>
                <rect id="Rectangle-Copy-58" fill="#6C757D" opacity="0.102353051" x="1216" y="380" width="43" height="44"></rect>
                <rect id="Rectangle-Copy-53" fill="#6C757D" opacity="0.145484561" x="1173" y="425" width="43" height="47"></rect>
                <rect id="Rectangle-Copy-54" fill="#6C757D" opacity="0.0792875744" x="1173" y="472" width="43" height="45"></rect>
                <rect id="Rectangle-Copy-72" fill="#6C757D" opacity="0.145484561" x="1087" y="472" width="43" height="46"></rect>
            </g>
        </g>
    </g>
</svg>